<?xml version="1.0" encoding="UTF-8"?>
<svg version="1.1" xmlns="http://www.w3.org/2000/svg" width="500" height="500">
<path d="M0 0 C1.18194695 -0.01029488 1.18194695 -0.01029488 2.38777161 -0.02079773 C4.97362664 -0.03899002 7.55887055 -0.0352392 10.14477539 -0.02954102 C11.95406795 -0.03410645 13.76335877 -0.0394131 15.57264709 -0.04542542 C19.35774802 -0.05434164 23.14263779 -0.05195037 26.92773438 -0.04199219 C31.76414788 -0.03050427 36.59983104 -0.05071875 41.43614864 -0.07990932 C45.17066532 -0.09830725 48.90500814 -0.09797172 52.63955879 -0.0922718 C54.42204373 -0.09211903 56.20454078 -0.09812693 57.98698235 -0.11056328 C60.48526938 -0.12553999 62.98222178 -0.11474844 65.48046875 -0.09765625 C66.20746979 -0.10732422 66.93447083 -0.11699219 67.6835022 -0.12695312 C73.64615346 -0.04207475 78.88925807 1.7194843 83.33833218 5.81591129 C88.03995665 11.16250938 89.10458046 15.97453096 89.09545898 22.91308594 C89.10217621 23.65199066 89.10889343 24.39089539 89.11581421 25.15219116 C89.13475719 27.58647452 89.13871665 30.02048157 89.14086914 32.45483398 C89.1473002 34.15488293 89.15402879 35.85493077 89.16104126 37.55497742 C89.17300517 41.11659306 89.17672305 44.67811178 89.17553711 48.23974609 C89.1753341 52.78922293 89.20262144 57.33807385 89.23708153 61.88740253 C89.25939127 65.39886798 89.26337339 68.91018383 89.26231766 72.42171288 C89.26466805 74.09814801 89.27345979 75.77458761 89.28898239 77.45095253 C89.4416121 95.6385756 89.4416121 95.6385756 82.55493164 102.71655273 C75.43568281 107.0851827 70.06886419 107.58393415 61.85400391 107.36279297 C45.85566748 107.00425462 36.4487569 110.55210246 23.78979492 120.02856445 C21.21529514 121.8126643 18.89194353 122.85657969 15.80493164 123.40405273 C14.81493164 122.74405273 13.82493164 122.08405273 12.80493164 121.40405273 C12.29321289 118.14624023 12.29321289 118.14624023 12.11743164 114.27905273 C12.05168945 112.99772461 11.98594727 111.71639648 11.91821289 110.39624023 C11.86213867 108.91510742 11.86213867 108.91510742 11.80493164 107.40405273 C10.6099707 107.43885742 9.41500977 107.47366211 8.18383789 107.50952148 C-11.34939264 107.92009911 -11.34939264 107.92009911 -17.24584961 102.52905273 C-22.23475825 97.09024252 -23.34481201 93.22704341 -23.35620117 85.90673828 C-23.36116608 85.14540588 -23.36613098 84.38407349 -23.37124634 83.59967041 C-23.38585553 81.08002824 -23.39266815 78.56044905 -23.39819336 76.04077148 C-23.40394618 74.28823342 -23.40970389 72.53569538 -23.41546631 70.78315735 C-23.42597299 67.10706286 -23.43181772 63.43099021 -23.43530273 59.75488281 C-23.44078442 55.05058409 -23.46480681 50.34657524 -23.49327469 45.64236736 C-23.51192403 42.02119613 -23.51710791 38.40009437 -23.51863861 34.77887917 C-23.52166087 33.04497507 -23.52967501 31.31107207 -23.54282379 29.57721519 C-23.55993127 27.14777127 -23.55799271 24.71903096 -23.55151367 22.28955078 C-23.56072845 21.57712723 -23.56994324 20.86470367 -23.57943726 20.13069153 C-23.52934601 14.11675345 -21.761834 10.27546725 -17.94506836 5.71655273 C-12.35470377 1.01556433 -7.16029885 -0.04421403 0 0 Z M40.24023438 13.59057617 C39.74467041 14.14261719 39.24910645 14.6946582 38.73852539 15.26342773 C38.17544678 15.87927734 37.61236816 16.49512695 37.03222656 17.12963867 C36.44159424 17.79769531 35.85096191 18.46575195 35.24243164 19.15405273 C34.32457886 20.16773926 34.32457886 20.16773926 33.38818359 21.2019043 C32.13183582 22.58990675 30.87948414 23.98153646 29.63110352 25.37670898 C27.93388163 27.26089756 26.21352379 29.118803 24.47680664 30.96655273 C23.97093018 31.50699219 23.46505371 32.04743164 22.94384766 32.60424805 C22.46488037 33.11568359 21.98591309 33.62711914 21.49243164 34.15405273 C17.93245939 37.85489939 17.93245939 37.85489939 15.80493164 42.40405273 C15.14493164 42.40405273 14.48493164 42.40405273 13.80493164 42.40405273 C12.33622436 43.81725192 12.33622436 43.81725192 10.80493164 45.71655273 C6.94130201 50.29082882 2.86064867 54.63877199 -1.25366211 58.98608398 C-3.5081067 61.27711546 -3.5081067 61.27711546 -3.19506836 64.40405273 C-0.67416058 64.43128943 1.84644621 64.45100481 4.36743164 64.46655273 C5.0719043 64.47493164 5.77637695 64.48331055 6.50219727 64.49194336 C7.20151367 64.49516602 7.90083008 64.49838867 8.62133789 64.50170898 C9.57182007 64.50956421 9.57182007 64.50956421 10.54150391 64.51757812 C13.64763745 64.36178564 16.72615101 63.84387854 19.80493164 63.40405273 C19.80493164 73.96405273 19.80493164 84.52405273 19.80493164 95.40405273 C24.70332374 94.58052375 24.70332374 94.58052375 27.85571289 91.70874023 C28.3900293 91.15702148 28.9243457 90.60530273 29.47485352 90.03686523 C30.0169043 89.45678711 30.55895508 88.87670898 31.11743164 88.27905273 C34.5371265 84.68899641 37.96195785 81.21063194 41.72290039 77.97436523 C45.96550132 74.32040674 49.88597583 70.39955065 53.80493164 66.40405273 C58.43132835 61.68729671 63.12126737 57.14902412 68.14086914 52.84936523 C69.40659629 51.75002476 70.61947504 50.58950933 71.80493164 49.40405273 C71.80493164 48.41405273 71.80493164 47.42405273 71.80493164 46.40405273 C63.88493164 46.40405273 55.96493164 46.40405273 47.80493164 46.40405273 C47.36743164 35.59155273 47.36743164 35.59155273 47.23681641 32.25634766 C46.95761716 25.61518335 46.47028424 19.01757598 45.80493164 12.40405273 C42.00885573 12.00123364 42.00885573 12.00123364 40.24023438 13.59057617 Z " fill="#FDDE5A" transform="translate(104.195068359375,187.595947265625)"/>
<path d="M0 0 C3.96 0 7.92 0 12 0 C12 6.27 12 12.54 12 19 C16.25388383 17.93652904 16.50908063 17.85582503 18.69140625 14.47265625 C19.16126953 13.76302734 19.63113281 13.05339844 20.11523438 12.32226562 C20.59283203 11.57654297 21.07042969 10.83082031 21.5625 10.0625 C22.51703251 8.59172768 23.47648273 7.12413238 24.44140625 5.66015625 C25.07091187 4.67994507 25.07091187 4.67994507 25.71313477 3.67993164 C27 2 27 2 30 0 C32.91796875 -0.1953125 32.91796875 -0.1953125 36.1875 -0.125 C37.81751953 -0.09792969 37.81751953 -0.09792969 39.48046875 -0.0703125 C40.72763672 -0.03550781 40.72763672 -0.03550781 42 0 C40.51516362 4.49645367 37.99248871 7.85548302 35.0625 11.5 C32.11346367 15.20024645 29.33452921 18.87027177 27 23 C27.40089844 23.48726562 27.80179688 23.97453125 28.21484375 24.4765625 C32.07489714 29.29068804 35.58772367 34.26111858 38.9375 39.4375 C39.3389624 40.05254395 39.7404248 40.66758789 40.15405273 41.30126953 C43 45.75359042 43 45.75359042 43 48 C38.30076708 49.04960969 33.55068448 49.91243659 29 48 C24.1694537 43.46451088 20.65701423 37.03058221 18 31 C18 30.34 18 29.68 18 29 C16.02 28.67 14.04 28.34 12 28 C12 34.6 12 41.2 12 48 C8.04 48 4.08 48 0 48 C0 32.16 0 16.32 0 0 Z " fill="#FDFDFD" transform="translate(224,208)"/>
<path d="M0 0 C3.96 0 7.92 0 12 0 C16.40114081 9.33174216 20.10161997 18.85799846 23.75 28.5 C24.34474226 30.06261796 24.93979234 31.62511879 25.53515625 33.1875 C29.79387019 44.38161058 29.79387019 44.38161058 31 48 C29.06440687 48.13504138 27.126128 48.23201129 25.1875 48.3125 C24.10855469 48.37050781 23.02960938 48.42851562 21.91796875 48.48828125 C19 48 19 48 17.17578125 45.79296875 C16 43 16 43 15 38 C9.06 38 3.12 38 -3 38 C-3.33 39.98 -3.66 41.96 -4 44 C-4.66 45.32 -5.32 46.64 -6 48 C-9.96 48 -13.92 48 -18 48 C-15.31995379 38.23272048 -11.57359306 28.91460051 -7.875 19.5 C-7.22231964 17.82825638 -6.56997318 16.15638236 -5.91796875 14.484375 C-5.29717731 12.89571517 -4.6760943 11.30716923 -4.0546875 9.71875 C-3.76302704 8.97298706 -3.47136658 8.22722412 -3.17086792 7.4588623 C-1.11852431 2.23704863 -1.11852431 2.23704863 0 0 Z M6 13 C2.68147256 20.75970709 2.68147256 20.75970709 1 29 C4.63 29 8.26 29 12 29 C10.35 23.72 8.7 18.44 7 13 C6.67 13 6.34 13 6 13 Z " fill="#FDFDFD" transform="translate(343,208)"/>
<path d="M0 0 C12.21 0 24.42 0 37 0 C37 7.87484958 37 7.87484958 34.21875 11.671875 C33.62723145 12.49655273 33.03571289 13.32123047 32.42626953 14.17089844 C31.79060059 15.02200195 31.15493164 15.87310547 30.5 16.75 C29.86304199 17.62946289 29.22608398 18.50892578 28.56982422 19.41503906 C26.727208 21.95396286 24.86491143 24.47743456 23 27 C22.09420604 28.24844427 21.19025381 29.49822925 20.2890625 30.75 C18.53900586 33.17607131 16.77208138 35.58996933 15 38 C21.93 38.33 28.86 38.66 36 39 C36 41.97 36 44.94 36 48 C23.79 48 11.58 48 -1 48 C-1 40.12799168 -1 40.12799168 1.81640625 36.328125 C2.41308105 35.50344727 3.00975586 34.67876953 3.62451172 33.82910156 C4.58381592 32.55244629 4.58381592 32.55244629 5.5625 31.25 C6.8493412 29.48039072 8.13451217 27.7095656 9.41796875 25.9375 C10.03720215 25.09058594 10.65643555 24.24367187 11.29443359 23.37109375 C14.40874506 19.04154996 17.19742407 14.53750388 20 10 C13.73 10 7.46 10 1 10 C0.67 6.7 0.34 3.4 0 0 Z " fill="#FDFDFD" transform="translate(288,208)"/>
<path d="M0 0 C3.96 0 7.92 0 12 0 C12 15.84 12 31.68 12 48 C8.04 48 4.08 48 0 48 C0 32.16 0 16.32 0 0 Z " fill="#FDFDFD" transform="translate(270,208)"/>
<path d="M0 0 C0.66 0 1.32 0 2 0 C0.79618552 2.49361571 -0.45428722 4.68143083 -2 7 C-2.21299627 9.68605221 -2.31126118 12.27192753 -2.31884766 14.9597168 C-2.33391609 16.17469345 -2.33391609 16.17469345 -2.34928894 17.41421509 C-2.38018937 20.0925424 -2.39717504 22.77076944 -2.4140625 25.44921875 C-2.43276864 27.30582038 -2.45234163 29.16241347 -2.4727478 31.01899719 C-2.52413357 35.90649379 -2.56372477 40.79401797 -2.60089111 45.68164062 C-2.64089039 50.66868957 -2.6920013 55.65562313 -2.7421875 60.64257812 C-2.83902308 70.42830444 -2.92340342 80.21409581 -3 90 C-2.34 90 -1.68 90 -1 90 C-0.67 91.65 -0.34 93.3 0 95 C-3.60478697 91.62777993 -4.92656415 89.73575571 -5.14044189 84.6804657 C-5.15248681 83.28790733 -5.15896615 81.89529432 -5.16113281 80.50268555 C-5.16609772 79.74135315 -5.17106262 78.98002075 -5.17617798 78.19561768 C-5.19078717 75.67597551 -5.19759979 73.15639632 -5.203125 70.63671875 C-5.20887782 68.88418069 -5.21463553 67.13164264 -5.22039795 65.37910461 C-5.23090463 61.70301012 -5.23674936 58.02693747 -5.24023438 54.35083008 C-5.24571606 49.64653135 -5.26973845 44.94252251 -5.29820633 40.23831463 C-5.31685567 36.61714339 -5.32203955 32.99604163 -5.32357025 29.37482643 C-5.32659251 27.64092233 -5.33460665 25.90701934 -5.34775543 24.17316246 C-5.36486291 21.74371853 -5.36292435 19.31497823 -5.35644531 16.88549805 C-5.3656601 16.17307449 -5.37487488 15.46065094 -5.3843689 14.72663879 C-5.33402412 8.68226085 -3.28270476 4.92405714 0 0 Z " fill="#F5E07C" transform="translate(86,193)"/>
<path d="M0 0 C0.79278351 -0.00365067 1.58556702 -0.00730133 2.40237427 -0.01106262 C5.00268491 -0.0191178 7.60236257 -0.00560273 10.20263672 0.0090332 C12.01911417 0.00955231 13.83559219 0.00903264 15.65206909 0.00752258 C19.44977255 0.00761207 23.24726269 0.01799617 27.04492188 0.03613281 C31.90835036 0.0588515 36.77146839 0.05935571 41.63493538 0.05261517 C45.38217928 0.04927174 49.1293526 0.05591181 52.8765831 0.0657444 C54.66990667 0.06958779 56.46323811 0.07074819 58.25656509 0.06915855 C60.76234117 0.06878706 63.26772105 0.08143062 65.7734375 0.09765625 C66.51122437 0.09517883 67.24901123 0.09270142 68.00915527 0.09014893 C72.02842471 0.13161538 75.13703228 0.59413708 78.75732422 2.37231445 C75.75732422 3.37231445 75.75732422 3.37231445 72.75732422 3.37231445 C72.75732422 2.71231445 72.75732422 2.05231445 72.75732422 1.37231445 C72.14625824 1.44418472 71.53519226 1.51605499 70.90560913 1.59010315 C63.31279847 2.39004491 55.77949635 2.47955505 48.15379715 2.41691399 C45.93360991 2.39925839 43.71349705 2.38914404 41.49325562 2.3809967 C35.18976854 2.35675813 28.88638391 2.32079556 22.58300781 2.27636719 C18.70593284 2.24955793 14.82891351 2.23253851 10.95176315 2.22149849 C9.48218072 2.21530954 8.012609 2.20533045 6.54307938 2.1914196 C4.49284001 2.17215608 2.44289594 2.16530207 0.39257812 2.16113281 C-1.35301895 2.14994667 -1.35301895 2.14994667 -3.13388062 2.13853455 C-6.2573075 2.37341475 -8.39343262 3.14134174 -11.24267578 4.37231445 C-13.55517578 3.99731445 -13.55517578 3.99731445 -15.24267578 3.37231445 C-10.04590533 0.80123954 -5.82242876 -0.06065529 0 0 Z " fill="#F3DB75" transform="translate(104.24267578125,187.627685546875)"/>
<path d="M0 0 C1.98 0.33 3.96 0.66 6 1 C1.23376124 4.91512469 -2.54007212 5.12425887 -8.62890625 5.28125 C-9.91087891 5.31863281 -11.19285156 5.35601562 -12.51367188 5.39453125 C-14.5435117 5.44818774 -16.57338779 5.50027874 -18.60327148 5.55224609 C-20.57024987 5.60407751 -22.53708281 5.66133895 -24.50390625 5.71875 C-25.67767822 5.74904297 -26.8514502 5.77933594 -28.06079102 5.81054688 C-31.06026065 5.87867018 -31.06026065 5.87867018 -34 7 C-33.67 6.01 -33.34 5.02 -33 4 C-30.0780231 2.53901155 -27.50106525 2.88865099 -24.2421875 2.90234375 C-23.24761032 2.90446617 -23.24761032 2.90446617 -22.23294067 2.90663147 C-20.11358137 2.91223246 -17.99432741 2.924785 -15.875 2.9375 C-14.43880361 2.94251488 -13.00260556 2.94707781 -11.56640625 2.95117188 C-8.04423655 2.96220218 -4.52212855 2.97946741 -1 3 C-0.67 2.01 -0.34 1.02 0 0 Z " fill="#F7E37A" transform="translate(178,290)"/>
<path d="M0 0 C0.66 0.33 1.32 0.66 2 1 C0.125 6.75 0.125 6.75 -1 9 C-2.99571323 9.67939174 -4.99594773 10.34561559 -7 11 C-7.66 11.66 -8.32 12.32 -9 13 C-9.99 13.495 -9.99 13.495 -11 14 C-10.67 14.99 -10.34 15.98 -10 17 C-12.64 17 -15.28 17 -18 17 C-18 16.34 -18 15.68 -18 15 C-17.31550781 14.80664062 -16.63101563 14.61328125 -15.92578125 14.4140625 C-11.88568839 12.46144085 -9.26670588 9.5880844 -6.1875 6.375 C-5.59001953 5.76398438 -4.99253906 5.15296875 -4.37695312 4.5234375 C-2.91104894 3.02235161 -1.45457007 1.51207138 0 0 Z " fill="#F8DE6F" transform="translate(142,268)"/>
<path d="M0 0 C2.0625 2.25 2.0625 2.25 4 5 C3.62719727 6.91503906 3.62719727 6.91503906 3 9 C2.92291277 10.36800819 2.89196391 11.73923592 2.90234375 13.109375 C2.90484131 13.78967773 2.90733887 14.46998047 2.90991211 15.17089844 C2.91901611 16.02200195 2.92812012 16.87310547 2.9375 17.75 C2.958125 20.4725 2.97875 23.195 3 26 C10.92 26 18.84 26 27 26 C26.67 27.32 26.34 28.64 26 30 C26 29.01 26 28.02 26 27 C18.08 27 10.16 27 2 27 C1.67 23.2875 1.34 19.575 1 15.75 C0.89558594 14.5856543 0.79117188 13.42130859 0.68359375 12.22167969 C0.56177734 10.83577637 0.56177734 10.83577637 0.4375 9.421875 C0.31181641 8.00793457 0.31181641 8.00793457 0.18359375 6.56542969 C0.02731493 4.3816825 0 2.18933206 0 0 Z " fill="#EFD87A" transform="translate(150,207)"/>
<path d="M0 0 C0.66 0 1.32 0 2 0 C2.33 1.32 2.66 2.64 3 4 C4.32 3.34 5.64 2.68 7 2 C4.68116787 6.50884026 1.93548431 8.93906776 -2 12 C-1.34 10.35 -0.68 8.7 0 7 C-1.98 7.33 -3.96 7.66 -6 8 C-5.1875 6.0625 -5.1875 6.0625 -4 4 C-3.01 3.67 -2.02 3.34 -1 3 C-0.67 2.01 -0.34 1.02 0 0 Z M0 4 C1 6 1 6 1 6 Z " fill="#FEDC5F" transform="translate(124,214)"/>
<path d="M0 0 C0.99 0.66 1.98 1.32 3 2 C2.34 2 1.68 2 1 2 C0.73832031 2.58910156 0.47664063 3.17820313 0.20703125 3.78515625 C-1.0642275 6.11785434 -2.40230531 7.60354368 -4.3125 9.4375 C-4.92867187 10.035625 -5.54484375 10.63375 -6.1796875 11.25 C-6.78039062 11.8275 -7.38109375 12.405 -8 13 C-8.98160543 13.97672182 -9.96112694 14.95554767 -10.9375 15.9375 C-11.9584375 16.9584375 -11.9584375 16.9584375 -13 18 C-12.71125 17.484375 -12.4225 16.96875 -12.125 16.4375 C-10.83033683 13.90244304 -10.83033683 13.90244304 -10.375 10.5 C-8.85269214 6.62503454 -8.48665619 6.39488522 -4.9375 4.75 C-4.22464844 4.47671875 -3.51179688 4.2034375 -2.77734375 3.921875 C-0.63766861 3.07390712 -0.63766861 3.07390712 0 0 Z " fill="#F9E674" transform="translate(117,228)"/>
<path d="M0 0 C2.31 0 4.62 0 7 0 C6.67 0.99 6.34 1.98 6 3 C6 2.34 6 1.68 6 1 C0.98886765 2.4317521 -0.94469549 4.98445693 -4 9 C-4.33 8.34 -4.66 7.68 -5 7 C-5.99 6.67 -6.98 6.34 -8 6 C-7.01 5.34 -6.02 4.68 -5 4 C-4.67 3.01 -4.34 2.02 -4 1 C-2.68 1.33 -1.36 1.66 0 2 C0 1.34 0 0.68 0 0 Z " fill="#F4DC70" transform="translate(144,199)"/>
<path d="M0 0 C0.66 0.33 1.32 0.66 2 1 C0.87895467 2.31587941 -0.24696965 3.62760353 -1.375 4.9375 C-2.00148438 5.66839844 -2.62796875 6.39929688 -3.2734375 7.15234375 C-5 9 -5 9 -7 10 C-5.6062718 5.56541027 -3.39417765 3.12621626 0 0 Z " fill="#F7EA84" transform="translate(129,216)"/>
<path d="M0 0 C0.66 0.33 1.32 0.66 2 1 C-0.31 3.31 -2.62 5.62 -5 8 C-5.66 6.68 -6.32 5.36 -7 4 C-5.35 3.67 -3.7 3.34 -2 3 C-2 2.34 -2 1.68 -2 1 C-1.34 0.67 -0.68 0.34 0 0 Z " fill="#F4E071" transform="translate(137,208)"/>
<path d="M0 0 C-5.75 4 -5.75 4 -8 4 C-8 2.68 -8 1.36 -8 0 C-4.94736336 -0.98120464 -3.05263664 -0.98120464 0 0 Z " fill="#F9E274" transform="translate(139,301)"/>
<path d="M0 0 C1.32 1.65 2.64 3.3 4 5 C3.34 6.32 2.68 7.64 2 9 C0.50178941 5.62902617 0 3.79557881 0 0 Z " fill="#F9E178" transform="translate(150,207)"/>
<path d="M0 0 C0.99 1.485 0.99 1.485 2 3 C2.66 2.67 3.32 2.34 4 2 C3.67 3.98 3.34 5.96 3 8 C1.5 6.8125 1.5 6.8125 0 5 C-0.1875 2.3125 -0.1875 2.3125 0 0 Z " fill="#F7DA61" transform="translate(150,202)"/>
</svg>
